<svg id="visual" viewBox="0 0 900 250" width="900" height="250" xmlns="http://www.w3.org/2000/svg" xmlns:xlink="http://www.w3.org/1999/xlink" version="1.1"><path d="M0 162L21.5 158.5C43 155 86 148 128.8 146C171.7 144 214.3 147 257.2 154.3C300 161.7 343 173.3 385.8 178C428.7 182.7 471.3 180.3 514.2 173.3C557 166.3 600 154.7 642.8 153.7C685.7 152.7 728.3 162.3 771.2 168.7C814 175 857 178 878.5 179.5L900 181L900 251L878.5 251C857 251 814 251 771.2 251C728.3 251 685.7 251 642.8 251C600 251 557 251 514.2 251C471.3 251 428.7 251 385.8 251C343 251 300 251 257.2 251C214.3 251 171.7 251 128.8 251C86 251 43 251 21.5 251L0 251Z" fill="#69c5fa"></path><path d="M0 170L21.5 174.2C43 178.3 86 186.7 128.8 191.7C171.7 196.7 214.3 198.3 257.2 197.8C300 197.3 343 194.7 385.8 192.2C428.7 189.7 471.3 187.3 514.2 184.5C557 181.7 600 178.3 642.8 174.2C685.7 170 728.3 165 771.2 168.3C814 171.7 857 183.3 878.5 189.2L900 195L900 251L878.5 251C857 251 814 251 771.2 251C728.3 251 685.7 251 642.8 251C600 251 557 251 514.2 251C471.3 251 428.7 251 385.8 251C343 251 300 251 257.2 251C214.3 251 171.7 251 128.8 251C86 251 43 251 21.5 251L0 251Z" fill="#5cb3ed"></path><path d="M0 173L21.5 176.5C43 180 86 187 128.8 190.7C171.7 194.3 214.3 194.7 257.2 191.7C300 188.7 343 182.3 385.8 183.8C428.7 185.3 471.3 194.7 514.2 197.2C557 199.7 600 195.3 642.8 194.8C685.7 194.3 728.3 197.7 771.2 200.3C814 203 857 205 878.5 206L900 207L900 251L878.5 251C857 251 814 251 771.2 251C728.3 251 685.7 251 642.8 251C600 251 557 251 514.2 251C471.3 251 428.7 251 385.8 251C343 251 300 251 257.2 251C214.3 251 171.7 251 128.8 251C86 251 43 251 21.5 251L0 251Z" fill="#50a2e0"></path><path d="M0 208L21.5 206.2C43 204.3 86 200.7 128.8 203C171.7 205.3 214.3 213.7 257.2 214.3C300 215 343 208 385.8 204C428.7 200 471.3 199 514.2 204.2C557 209.3 600 220.7 642.8 219.7C685.7 218.7 728.3 205.3 771.2 203.3C814 201.3 857 210.7 878.5 215.3L900 220L900 251L878.5 251C857 251 814 251 771.2 251C728.3 251 685.7 251 642.8 251C600 251 557 251 514.2 251C471.3 251 428.7 251 385.8 251C343 251 300 251 257.2 251C214.3 251 171.7 251 128.8 251C86 251 43 251 21.5 251L0 251Z" fill="#4691d3"></path><path d="M0 221L21.5 222.5C43 224 86 227 128.8 226.2C171.7 225.3 214.3 220.7 257.2 222.7C300 224.7 343 233.3 385.8 235.2C428.7 237 471.3 232 514.2 229.8C557 227.7 600 228.3 642.8 231.2C685.7 234 728.3 239 771.2 239C814 239 857 234 878.5 231.5L900 229L900 251L878.5 251C857 251 814 251 771.2 251C728.3 251 685.7 251 642.8 251C600 251 557 251 514.2 251C471.3 251 428.7 251 385.8 251C343 251 300 251 257.2 251C214.3 251 171.7 251 128.8 251C86 251 43 251 21.5 251L0 251Z" fill="#3f80c5"></path></svg>